<?xml version="1.0" encoding="utf-8"?>
<!-- Generator: Adobe Illustrator 21.0.0, SVG Export Plug-In . SVG Version: 6.00 Build 0)  -->
<svg version="1.1" id="Layer_1" xmlns="http://www.w3.org/2000/svg" xmlns:xlink="http://www.w3.org/1999/xlink" x="0px" y="0px"
	 viewBox="0 0 300 300" style="enable-background:new 0 0 300 300;" xml:space="preserve">
<style type="text/css">
	.st0{display:none;}
	.st1{display:inline;fill:#B3B3B3;}
	.st2{fill:#FFFFFF;}
</style>
<g id="Twitter_Bird_3_" class="st0">
	<path class="st1" d="M300,56.7c-11,4.9-22.8,8.2-35.2,9.7c12.7-7.6,22.4-19.6,27-34c-11.9,7-25,12.1-39,14.9
		c-11.2-11.9-27.1-19.4-44.8-19.4c-33.9,0-61.4,27.5-61.4,61.4c0,4.8,0.5,9.5,1.6,14c-51-2.6-96.2-27-126.5-64.1
		c-5.3,9.1-8.3,19.6-8.3,30.9c0,21.3,10.8,40.1,27.3,51.1c-10.1-0.3-19.5-3.1-27.8-7.7c0,0.3,0,0.5,0,0.8
		c0,29.7,21.2,54.5,49.2,60.2c-5.1,1.4-10.6,2.2-16.2,2.2c-4,0-7.8-0.4-11.5-1.1c7.8,24.4,30.5,42.1,57.3,42.6
		c-21,16.5-47.5,26.3-76.2,26.3c-5,0-9.8-0.3-14.6-0.9C28,260.9,60.3,271,94.9,271c112.9,0,174.6-93.5,174.6-174.6
		c0-2.7-0.1-5.3-0.2-7.9C281.4,79.8,291.8,69,300,56.7z"/>
</g>
<path id="f" class="st2" d="M169.3,274V161h37.9l5.7-44h-43.6V88.9c0-12.7,3.5-21.4,21.8-21.4l23.3,0V28c-4-0.5-17.9-1.7-34-1.7
	c-33.6,0-56.6,20.5-56.6,58.2V117h-38v44h38v113H169.3z"/>
</svg>
