<?xml version="1.0" encoding="UTF-8" standalone="no"?>
<svg width="151px" height="98px" viewBox="0 0 151 98" version="1.1" xmlns="http://www.w3.org/2000/svg" xmlns:xlink="http://www.w3.org/1999/xlink">
    <!-- Generator: Sketch 39.1 (31720) - http://www.bohemiancoding.com/sketch -->
    <title>Group 2</title>
    <desc>Created with Sketch.</desc>
    <defs></defs>
    <g id="Page-1" stroke="none" stroke-width="1" fill="none" fill-rule="evenodd">
        <g id="Desktop-Reset-Password" transform="translate(-557.000000, -83.000000)">
            <g id="Group" transform="translate(557.000000, 83.000000)">
                <g id="Group-2">
                    <path d="M65.7521182,46.373516 C63.5948557,44.0590401 61.4092081,39.9820827 64.2163385,34.1696434 C64.2163385,34.1696434 65.6296144,48.384995 76.8148114,47.9919991 C88.0000085,47.6050031 93.9997082,39.0205927 93.9997082,29.0591967 C93.9997082,29.0591967 94.0564782,26.1297273 92.5864323,22.5852643 C92.5864323,22.5852643 92.8090307,28.6362011 86.7062486,31.7381687 C86.7062486,31.7381687 97.7315931,16.4578282 83.9125637,6.27443451 C83.9125637,6.27443451 86.1161387,12.1048737 82.1526916,14.0203537 C82.1526916,14.0203537 81.1203728,0.81149153 66.5663205,0 C66.5663205,0 75.9020085,8.41641216 68.4785753,20.6682843 C68.4785753,20.6682843 69.1374069,11.8123767 60.6831488,12.1768729 C60.6831488,12.1768729 64.8437971,15.9823332 60.3171313,20.887282 C54.7312555,26.9382188 55.7919594,34.4666403 56.8287601,36.8561153 C58.6244869,40.9660724 61.794647,44.3275373 65.7521182,46.373516" id="Fill-1" fill="#15A9E1"></path>
                    <path d="M8.87717157,82.27175 C7.9844951,82.27175 7.67805392,82.20575 7.67805392,81.78275 C7.9844951,77.89325 8.16066176,74.85125 8.45822059,70.11425 C8.45822059,69.86975 8.57961275,68.35325 8.87717157,68.35325 C9.30352451,68.35325 9.42491667,69.68975 9.42491667,69.99275 C9.72247549,74.79425 9.89864216,77.34725 10.2050833,81.84725 C10.2613382,82.39475 9.65733824,82.27175 8.87717157,82.27175 M12.1207108,55.59275 C11.9430637,54.55775 10.3827304,54.49925 8.87717157,54.49925 C7.55814216,54.49925 5.88381863,54.55775 5.76242647,55.41275 C3.78314216,70.05725 2.22280882,80.68925 0.000740196078,96.54875 C-0.0555147059,97.09475 2.04516176,97.09475 2.94672059,97.09475 C4.86234804,97.09475 6.18137745,97.16075 6.24503431,96.49175 C6.54407353,92.96075 6.78537745,90.71975 7.13919118,87.31025 C7.20284804,86.70725 7.79944608,86.83025 8.94230882,86.83025 C9.89864216,86.83025 10.6240343,86.70725 10.6802892,87.31025 C11.1628971,90.65375 11.3953186,92.96075 11.8794069,96.37025 C11.9993186,97.21775 13.1421814,97.09475 14.8801618,97.09475 C16.4982304,97.09475 18.2998676,97.16075 18.1799559,96.49175 C15.7817206,80.63225 14.3975539,71.14925 12.1207108,55.59275" id="Fill-1" fill="#122D4D"></path>
                    <path d="M33.4581951,60.5129 L30.879352,60.5129 C30.2190971,60.5129 29.4389304,60.5129 29.1398912,60.6359 C28.599548,61.0604 28.7194598,62.0939 28.7194598,62.8829 L28.7194598,96.4889 C28.7194598,97.0364 28.0592049,97.0979 25.2420186,97.0979 C22.7223912,97.0979 22.182048,97.0979 22.182048,96.4889 L22.182048,62.8829 C22.182048,62.0939 22.3034402,61.0604 21.7616167,60.6359 C21.4625775,60.5129 20.6838912,60.5129 20.0236363,60.5129 L17.8045284,60.5129 C16.90445,60.5129 16.7253225,60.0884 16.7253225,57.5354 C16.7253225,54.9839 16.8452343,54.5594 17.5647049,54.5594 L33.3989794,54.5594 C34.11845,54.5594 34.1776657,55.1054 34.1776657,57.4139 C34.1776657,60.2084 34.11845,60.5129 33.4581951,60.5129" id="Fill-4" fill="#122D4D"></path>
                    <path d="M51.7502167,97.0367 C48.5718147,97.0367 48.4519029,96.9767 48.4519029,95.8217 L48.4519029,79.7162 C48.4519029,78.9872 48.4519029,78.3797 47.9115598,78.3197 C47.1920892,78.1367 44.5540304,78.2582 44.3127265,78.3197 C43.8345598,78.5027 43.8345598,79.0487 43.8345598,79.8377 L43.8345598,96.0647 C43.8345598,97.0367 43.6524716,97.0367 40.5347657,97.0367 C37.5961873,97.0367 37.4762755,97.0367 37.4762755,96.1862 L37.4762755,55.7132 C37.4762755,54.7997 37.6554029,54.6197 40.5347657,54.6197 C43.714648,54.6197 43.8937755,54.7997 43.8937755,55.7732 L43.8937755,69.9947 C43.8937755,71.0267 43.8937755,71.6957 44.6724618,71.9387 C45.2128049,71.9987 47.312001,72.1202 47.9722559,71.9387 C48.4519029,71.7557 48.4519029,71.0867 48.4519029,70.1762 L48.4519029,55.5287 C48.4519029,54.4967 48.8116382,54.6197 51.691001,54.6197 C54.7480108,54.6197 54.9286186,54.6197 54.9286186,55.5902 L54.9286186,95.8217 C54.9286186,96.9767 54.9286186,97.0367 51.7502167,97.0367" id="Fill-6" fill="#122D4D"></path>
                    <path d="M73.5204196,97.0973 L62.004449,97.0973 C61.1650667,97.0973 60.3256843,97.0973 60.0251647,96.7328 C59.6654294,96.3068 59.7261255,95.3948 59.7261255,94.6058 L59.7261255,55.5293 C59.7261255,54.6803 60.0251647,54.5588 62.7239196,54.5588 C65.7838902,54.5588 66.1436255,54.6188 66.1436255,55.5908 L66.1436255,88.7708 C66.1436255,89.5628 66.0829294,90.5933 66.5033608,90.8993 C66.8038804,91.0808 67.523351,91.1423 68.1229098,91.1423 L73.4612039,91.1423 C74.2398902,91.1423 74.3005863,91.4453 74.3005863,93.9983 C74.3005863,96.9158 74.2398902,97.0973 73.5204196,97.0973" id="Fill-8" fill="#122D4D"></path>
                    <path d="M80.6575382,97.0367 C77.7189598,97.0367 77.599048,97.0367 77.599048,96.1862 L77.599048,55.5902 C77.599048,54.6797 77.8373912,54.6197 80.6575382,54.6197 C83.8359402,54.6197 84.016548,54.6797 84.016548,55.6502 L84.016548,96.0647 C84.016548,96.9767 83.955852,97.0367 80.6575382,97.0367" id="Fill-10" fill="#122D4D"></path>
                    <path d="M104.227158,97.0973 C102.666825,97.0973 102.00805,96.9758 101.587619,95.4563 C99.6083343,88.4078 98.8903441,85.1858 96.7896676,77.5283 C96.4299324,76.1933 95.9502853,73.9433 95.5298539,73.9433 C95.1109029,73.9433 95.1109029,75.2198 95.1109029,76.0103 L95.1109029,96.0038 C95.1109029,96.9758 94.9302951,97.0973 91.8111088,97.0973 C88.8133147,97.0973 88.8133147,96.9758 88.8133147,96.0653 L88.8133147,55.4093 C88.8133147,54.5588 88.9332265,54.5588 91.5712853,54.5588 C94.1516088,54.5588 94.5098637,54.8003 94.9302951,56.5028 C96.2493245,61.4858 97.9887853,67.9883 99.7889422,74.4293 C99.9680696,75.0368 100.148677,76.0103 100.508413,76.0103 C100.927364,76.0103 100.927364,74.8553 100.927364,74.1863 L100.927364,55.6508 C100.927364,54.6803 101.107972,54.5588 104.107246,54.5588 C107.165736,54.5588 107.224952,54.6188 107.224952,55.5908 L107.224952,95.3348 C107.224952,96.9158 107.285648,97.0973 104.227158,97.0973" id="Fill-12" fill="#122D4D"></path>
                    <path d="M127.856733,97.0973 C125.157978,97.0973 124.617635,97.2203 124.377812,96.2468 C122.758263,89.6843 121.739753,85.6733 120.17942,79.1093 C120.059508,78.5633 119.640557,78.4403 118.919606,80.0813 C118.561351,80.9318 118.441439,81.7223 118.441439,82.6343 L118.441439,96.0038 C118.441439,96.9758 116.941802,97.0973 115.202341,97.0973 C113.642008,97.0973 112.022459,96.9758 112.022459,96.1253 L112.022459,55.4693 C112.022459,54.6803 113.822616,54.6188 115.143125,54.6188 C116.521371,54.6188 118.441439,54.6188 118.441439,55.5293 L118.441439,70.2368 C118.441439,70.6613 118.380743,71.5733 118.740478,71.4518 C118.919606,71.3918 119.040998,70.7228 119.16091,70.2968 C120.839675,64.4633 121.618361,61.3043 123.298606,55.4093 C123.477733,54.7403 123.838949,54.8003 126.657616,54.8003 C129.596194,54.8003 130.136537,55.0433 130.015145,55.4093 C127.978125,61.9103 127.196478,64.4633 125.098763,70.6613 C124.857459,71.3303 124.678331,72.0593 124.678331,72.6668 C124.678331,73.2143 124.798243,73.7003 125.098763,74.8553 C127.437782,83.1203 128.576204,87.3743 131.035135,96.3683 C131.095831,96.7328 131.035135,97.0973 127.856733,97.0973" id="Fill-14" fill="#122D4D"></path>
                    <path d="M149.062759,92.0531 C147.022778,95.7611 145.643053,97.0976 141.326229,97.0976 C136.406886,97.0976 132.628925,94.1201 132.628925,88.5896 L132.628925,85.1861 C132.628925,84.6401 133.169269,84.5786 135.567504,84.5786 C137.96722,84.5786 139.105641,84.5786 139.105641,85.0646 L139.105641,87.6161 C139.105641,89.8661 139.526073,91.2026 141.326229,91.2026 C142.944298,91.2026 143.363249,89.9876 143.484641,88.9541 C143.545337,87.9206 143.604553,87.0086 143.604553,86.1581 C143.604553,80.8721 132.26919,73.5176 132.26919,64.4021 C132.26919,62.7011 132.988661,59.9066 133.768827,58.5086 C134.548994,57.1106 136.707406,54.5591 140.784406,54.5591 C145.884357,54.5591 149.302582,58.3856 149.302582,62.8226 L149.302582,65.8001 C149.302582,66.2261 148.46172,66.1646 146.42322,66.1646 C144.144896,66.1646 142.944298,66.1646 142.944298,65.7386 L142.944298,62.9441 C142.944298,61.2431 141.804396,60.2081 140.784406,60.2081 C139.70668,60.2081 138.867298,61.1816 138.745906,62.1536 C138.625994,63.0671 138.566778,63.7961 138.566778,64.5836 C138.566778,71.7566 150.022053,76.6781 150.022053,86.5841 C150.022053,88.4081 149.782229,90.7166 149.062759,92.0531" id="Fill-17" fill="#122D4D"></path>
                </g>
            </g>
        </g>
    </g>
</svg>